HIERARCHY
ROOT Hips
{
	OFFSET 0.000000 0.000000 0.000000
	CHANNELS 6 Xposition Yposition Zposition Zrotation Yrotation Xrotation
	JOINT LHipJoint
	{
		OFFSET 0.000000 0.000000 0.000000
		CHANNELS 3 Zrotation Yrotation Xrotation
		JOINT LeftUpLeg
		{
			OFFSET 0 2. 0
			CHANNELS 3 Zrotation Yrotation Xrotation
			JOINT LeftLeg
			{
				OFFSET -1. 2. 0
				CHANNELS 3 Zrotation Yrotation Xrotation
				End Site
				{
					OFFSET 0.000000 0.000000 0.000000
				}
			}
		}
	}
}

MOTION
Frames: 63
Frame Time: 0.041667
0.000000 0.000000 0.000000 0.000000 0.000000 -98.776223 0.000000 0.000000 0.000000 0.000000 0.000000 0.000000 0.000000 0.000000 0.000000 
0.000000 0.000000 0.000000 0.000000 0.000000 -94.026806 0.000000 0.000000 0.000000 0.000000 6.169331 4.737762 0.000000 0.000000 0.000000 
0.000000 0.000000 0.000000 0.000000 0.000000 -89.277388 0.000000 0.000000 0.000000 0.000000 12.338662 9.475524 0.000000 0.000000 0.000000 
0.000000 0.000000 0.000000 0.000000 0.000000 -84.527971 0.000000 0.000000 0.000000 0.000000 18.507992 14.213286 0.000000 0.000000 0.000000 
0.000000 0.000000 0.000000 0.000000 0.000000 -79.778554 0.000000 0.000000 0.000000 0.000000 24.677323 18.951049 0.000000 0.000000 0.000000 
0.000000 0.000000 0.000000 0.000000 0.000000 -75.029137 0.000000 0.000000 0.000000 0.000000 30.846654 23.688811 0.000000 0.000000 0.000000 
0.000000 0.000000 0.000000 0.000000 0.000000 -70.279720 0.000000 0.000000 0.000000 0.000000 37.015985 28.426573 0.000000 0.000000 0.000000 
0.000000 0.000000 0.000000 0.000000 0.000000 -65.530303 0.000000 0.000000 0.000000 0.000000 43.185316 33.164335 0.000000 0.000000 0.000000 
0.000000 0.000000 0.000000 0.000000 0.000000 -60.780886 0.000000 0.000000 0.000000 0.000000 49.354646 37.902097 0.000000 0.000000 0.000000 
0.000000 0.000000 0.000000 0.000000 0.000000 -56.031469 0.000000 0.000000 0.000000 0.000000 55.523977 42.639859 0.000000 0.000000 0.000000 
0.000000 0.000000 0.000000 0.000000 0.000000 -51.282052 0.000000 0.000000 0.000000 0.000000 61.693308 47.377621 0.000000 0.000000 0.000000 
0.000000 0.000000 0.000000 0.000000 0.000000 -46.532635 0.000000 0.000000 0.000000 0.000000 67.862639 52.115383 0.000000 0.000000 0.000000 
0.000000 0.000000 0.000000 0.000000 0.000000 -41.783218 0.000000 0.000000 0.000000 0.000000 74.031970 56.853146 0.000000 0.000000 0.000000 
0.000000 0.000000 0.000000 0.000000 0.000000 -37.033800 0.000000 0.000000 0.000000 0.000000 80.201300 61.590908 0.000000 0.000000 0.000000 
0.000000 0.000000 0.000000 0.000000 0.000000 -32.284383 0.000000 0.000000 0.000000 0.000000 86.370631 66.328670 0.000000 0.000000 0.000000 
0.000000 0.000000 0.000000 0.000000 0.000000 -27.534966 0.000000 0.000000 0.000000 0.000000 92.539962 71.066432 0.000000 0.000000 0.000000 
0.000000 0.000000 0.000000 0.000000 0.000000 -22.785549 0.000000 0.000000 0.000000 0.000000 98.709293 75.804194 0.000000 0.000000 0.000000 
0.000000 0.000000 0.000000 0.000000 0.000000 -18.036132 0.000000 0.000000 0.000000 0.000000 104.878624 80.541956 0.000000 0.000000 0.000000 
0.000000 0.000000 0.000000 0.000000 0.000000 -13.286715 0.000000 0.000000 0.000000 0.000000 111.047954 85.279718 0.000000 0.000000 0.000000 
0.000000 0.000000 0.000000 0.000000 0.000000 -8.537298 0.000000 0.000000 0.000000 0.000000 117.217285 90.017481 0.000000 0.000000 0.000000 
0.000000 0.000000 0.000000 0.000000 0.000000 -3.787881 0.000000 0.000000 0.000000 0.000000 123.386616 94.755243 0.000000 0.000000 0.000000 
0.000000 0.000000 0.000000 0.000000 0.000000 0.961536 0.000000 0.000000 0.000000 1.934839 126.000034 67.836220 0.000000 0.000000 0.000000 
0.000000 0.000000 0.000000 0.000000 0.000000 5.710953 0.000000 0.000000 0.000000 3.869679 128.613453 40.917196 0.000000 0.000000 0.000000 
0.000000 0.000000 0.000000 0.000000 0.000000 10.460370 0.000000 0.000000 0.000000 5.804518 131.226871 13.998173 0.000000 0.000000 0.000000 
0.000000 0.000000 0.000000 0.000000 0.000000 15.209788 0.000000 0.000000 0.000000 7.739357 133.840290 -12.920851 0.000000 0.000000 0.000000 
0.000000 0.000000 0.000000 0.000000 0.000000 19.959205 0.000000 0.000000 0.000000 9.674196 136.453708 -39.839874 0.000000 0.000000 0.000000 
0.000000 0.000000 0.000000 0.000000 0.000000 24.708622 0.000000 0.000000 0.000000 11.609036 139.067127 -66.758898 0.000000 0.000000 0.000000 
0.000000 0.000000 0.000000 0.000000 0.000000 29.458039 0.000000 0.000000 0.000000 13.543875 141.680545 -93.677921 0.000000 0.000000 0.000000 
0.000000 0.000000 0.000000 1.340475 1.198578 42.070291 0.000000 0.000000 0.000000 13.317447 152.860383 -86.668066 0.000000 0.000000 0.000000 
0.000000 0.000000 0.000000 2.680950 2.397157 54.682543 0.000000 0.000000 0.000000 13.091019 164.040220 -79.658211 0.000000 0.000000 0.000000 
0.000000 0.000000 0.000000 4.021426 3.595735 67.294795 0.000000 0.000000 0.000000 12.864591 175.220058 -72.648356 0.000000 0.000000 0.000000 
0.000000 0.000000 0.000000 4.021426 3.595735 70.623411 0.000000 0.000000 0.000000 12.864591 175.220058 -72.648356 0.000000 0.000000 0.000000 
0.000000 0.000000 0.000000 4.021426 3.595735 73.952027 0.000000 0.000000 0.000000 12.864591 175.220058 -72.648356 0.000000 0.000000 0.000000 
0.000000 0.000000 0.000000 4.021426 3.595735 77.280643 0.000000 0.000000 0.000000 12.864591 175.220058 -72.648356 0.000000 0.000000 0.000000 
0.000000 0.000000 0.000000 4.021426 3.595735 80.609259 0.000000 0.000000 0.000000 12.864591 175.220058 -72.648356 0.000000 0.000000 0.000000 
0.000000 0.000000 0.000000 4.021426 3.595735 83.937875 0.000000 0.000000 0.000000 12.864591 175.220058 -72.648356 0.000000 0.000000 0.000000 
0.000000 0.000000 0.000000 4.021426 3.595735 87.266490 0.000000 0.000000 0.000000 12.864591 175.220058 -72.648356 0.000000 0.000000 0.000000 
0.000000 0.000000 0.000000 4.021426 3.595735 90.595106 0.000000 0.000000 0.000000 12.864591 175.220058 -72.648356 0.000000 0.000000 0.000000 
0.000000 0.000000 0.000000 4.021426 3.595735 93.923722 0.000000 0.000000 0.000000 12.864591 175.220058 -72.648356 0.000000 0.000000 0.000000 
0.000000 0.000000 0.000000 4.021426 3.595735 97.252338 0.000000 0.000000 0.000000 12.864591 175.220058 -72.648356 0.000000 0.000000 0.000000 
0.000000 0.000000 0.000000 4.021426 3.595735 100.580954 0.000000 0.000000 0.000000 12.864591 175.220058 -72.648356 0.000000 0.000000 0.000000 
0.000000 0.000000 0.000000 4.021426 3.595735 103.909570 0.000000 0.000000 0.000000 12.864591 175.220058 -72.648356 0.000000 0.000000 0.000000 
0.000000 0.000000 0.000000 4.021426 3.595735 107.238186 0.000000 0.000000 0.000000 12.864591 175.220058 -72.648356 0.000000 0.000000 0.000000 
0.000000 0.000000 0.000000 4.021426 3.595735 110.566802 0.000000 0.000000 0.000000 12.864591 175.220058 -72.648356 0.000000 0.000000 0.000000 
0.000000 0.000000 0.000000 4.021426 3.595735 113.895418 0.000000 0.000000 0.000000 12.864591 175.220058 -72.648356 0.000000 0.000000 0.000000 
0.000000 0.000000 0.000000 4.021426 3.595735 117.224034 0.000000 0.000000 0.000000 12.864591 175.220058 -72.648356 0.000000 0.000000 0.000000 
0.000000 0.000000 0.000000 4.021426 3.595735 120.552650 0.000000 0.000000 0.000000 12.864591 175.220058 -72.648356 0.000000 0.000000 0.000000 
0.000000 0.000000 0.000000 4.021426 3.595735 123.881266 0.000000 0.000000 0.000000 12.864591 175.220058 -72.648356 0.000000 0.000000 0.000000 
0.000000 0.000000 0.000000 4.021426 3.595735 127.209882 0.000000 0.000000 0.000000 12.864591 175.220058 -72.648356 0.000000 0.000000 0.000000 
0.000000 0.000000 0.000000 4.021426 3.595735 130.538498 0.000000 0.000000 0.000000 12.864591 175.220058 -72.648356 0.000000 0.000000 0.000000 
0.000000 0.000000 0.000000 4.021426 3.595735 133.867114 0.000000 0.000000 0.000000 12.864591 175.220058 -72.648356 0.000000 0.000000 0.000000 
0.000000 0.000000 0.000000 4.021426 3.595735 137.195730 0.000000 0.000000 0.000000 12.864591 175.220058 -72.648356 0.000000 0.000000 0.000000 
0.000000 0.000000 0.000000 4.021426 3.595735 140.524345 0.000000 0.000000 0.000000 12.864591 175.220058 -72.648356 0.000000 0.000000 0.000000 
0.000000 0.000000 0.000000 4.021426 3.595735 143.852961 0.000000 0.000000 0.000000 12.864591 175.220058 -72.648356 0.000000 0.000000 0.000000 
0.000000 0.000000 0.000000 4.021426 3.595735 147.181577 0.000000 0.000000 0.000000 12.864591 175.220058 -72.648356 0.000000 0.000000 0.000000 
0.000000 0.000000 0.000000 4.021426 3.595735 150.510193 0.000000 0.000000 0.000000 12.864591 175.220058 -72.648356 0.000000 0.000000 0.000000 
0.000000 0.000000 0.000000 4.021426 3.595735 153.838809 0.000000 0.000000 0.000000 12.864591 175.220058 -72.648356 0.000000 0.000000 0.000000 
0.000000 0.000000 0.000000 4.021426 3.595735 157.167425 0.000000 0.000000 0.000000 12.864591 175.220058 -72.648356 0.000000 0.000000 0.000000 
0.000000 0.000000 0.000000 4.021426 3.595735 160.496041 0.000000 0.000000 0.000000 12.864591 175.220058 -72.648356 0.000000 0.000000 0.000000 
0.000000 0.000000 0.000000 4.021426 3.595735 163.824657 0.000000 0.000000 0.000000 12.864591 175.220058 -72.648356 0.000000 0.000000 0.000000 
0.000000 0.000000 0.000000 4.021426 3.595735 167.153273 0.000000 0.000000 0.000000 12.864591 175.220058 -72.648356 0.000000 0.000000 0.000000 
0.000000 0.000000 0.000000 4.021426 3.595735 169.554262 0.000000 0.000000 0.000000 12.864591 175.220058 -72.648356 0.000000 0.000000 0.000000 
0.000000 0.000000 0.000000 4.021426 3.595735 171.955251 0.000000 0.000000 0.000000 12.864591 175.220058 -72.648356 0.000000 0.000000 0.000000 
